<?xml version="1.0" encoding="UTF-8" standalone="no"?>
<svg
   xmlns:dc="http://purl.org/dc/elements/1.1/"
   xmlns:cc="http://creativecommons.org/ns#"
   xmlns:rdf="http://www.w3.org/1999/02/22-rdf-syntax-ns#"
   xmlns:svg="http://www.w3.org/2000/svg"
   xmlns="http://www.w3.org/2000/svg"
   xmlns:sodipodi="http://sodipodi.sourceforge.net/DTD/sodipodi-0.dtd"
   xmlns:inkscape="http://www.inkscape.org/namespaces/inkscape"
   width="16"
   height="16"
   fill="rgb(69,72,82)"
   viewBox="0 0 24 24"
   version="1.1"
   id="svg4"
   sodipodi:docname="email.svg"
   inkscape:version="0.92.2 5c3e80d, 2017-08-06">
  <metadata
     id="metadata10">
    <rdf:RDF>
      <cc:Work
         rdf:about="">
        <dc:format>image/svg+xml</dc:format>
        <dc:type
           rdf:resource="http://purl.org/dc/dcmitype/StillImage" />
      </cc:Work>
    </rdf:RDF>
  </metadata>
  <defs
     id="defs8" />
  <sodipodi:namedview
     pagecolor="#ffffff"
     bordercolor="#666666"
     borderopacity="1"
     objecttolerance="10"
     gridtolerance="10"
     guidetolerance="10"
     inkscape:pageopacity="0"
     inkscape:pageshadow="2"
     inkscape:window-width="1210"
     inkscape:window-height="776"
     id="namedview6"
     showgrid="false"
     inkscape:zoom="14.75"
     inkscape:cx="-4.1355932"
     inkscape:cy="8"
     inkscape:window-x="0"
     inkscape:window-y="0"
     inkscape:window-maximized="0"
     inkscape:current-layer="svg4" />
  <path
     d="M0 3v18h24v-18h-24zm6.623 7.929l-4.623 5.712v-9.458l4.623 3.746zm-4.141-5.929h19.035l-9.517 7.713-9.518-7.713zm5.694 7.188l3.824 3.099 3.83-3.104 5.612 6.817h-18.779l5.513-6.812zm9.208-1.264l4.616-3.741v9.348l-4.616-5.607z"
     id="path2" />
  <path
     style="fill:#5f01ab;fill-opacity:0.82857144;stroke-width:0.06779661"
     d="M 0.04067797,7.9728814 V 2.0067797 H 8.0067797 15.972881 V 7.9728814 13.938983 H 8.0067797 0.04067797 Z M 14.277966,12.656351 c 0,-0.05031 -3.312544,-4.1299661 -3.63338,-4.4747911 -0.07633,-0.08204 -0.269453,0.048356 -1.2959555,0.8750333 C 8.6851885,9.5908847 8.10808,10.054305 8.0661661,10.086417 8.0168461,10.124203 7.5504271,9.7862244 6.7441322,9.128438 6.0589274,8.5694374 5.4815131,8.1112639 5.4609895,8.1102741 c -0.037651,-0.00182 -3.577234,4.3442599 -3.6779176,4.5159289 -0.045619,0.07778 0.9408113,0.09244 6.2203389,0.09244 3.7683182,0 6.2745552,-0.02488 6.2745552,-0.06229 z M 3.0207371,9.0683695 C 3.813521,8.086142 4.4359725,7.2592534 4.4039626,7.2308392 4.2300243,7.0764393 1.4849503,4.8716945 1.4135593,4.8290546 c -0.06731,-0.040203 -0.084746,0.601908 -0.084746,3.1209932 0,3.0873492 0.00333,3.1680572 0.125249,3.0378992 0.068887,-0.07354 0.7738906,-0.93735 1.5666748,-1.9195775 z M 14.658769,4.8056622 c -0.02129,-0.02129 -2.791949,2.1796836 -3.050044,2.4229128 -0.03249,0.030618 0.638698,0.9032315 1.491526,1.9391416 l 1.550596,1.8834734 0.01764,-3.1090848 c 0.0097,-1.7099966 0.0053,-3.1213959 -0.0097,-3.136443 z m -3.337764,1.0316259 c 1.659299,-1.3423728 3.018674,-2.4635593 3.020832,-2.4915254 0.0022,-0.027966 -2.851159,-0.050847 -6.3407068,-0.050847 -3.5997191,0 -6.334856,0.025676 -6.3220341,0.059349 0.012429,0.032642 1.4387559,1.2060185 3.1696145,2.6075035 3.1199775,2.5262612 3.1483402,2.5471579 3.3012013,2.4321763 0.084802,-0.063788 1.5117939,-1.2142831 3.1710931,-2.5566564 z"
     id="path817"
     inkscape:connector-curvature="0"
     transform="scale(1.5)" />
  <path
     style="fill:#9c27b0;fill-opacity:1;stroke-width:0.06779661"
     d="M 0.04067797,7.9728814 V 2.0067797 H 8.0067797 15.972881 V 7.9728814 13.938983 H 8.0067797 0.04067797 Z M 14.277966,12.665163 c 0,-0.100034 -3.62413,-4.5566884 -3.705478,-4.5566884 -0.04844,0 -0.7439544,0.5347696 -1.699126,1.3064237 L 8.0450285,10.084083 7.754718,9.8834936 C 7.5950468,9.7731688 7.0220339,9.3287308 6.4813559,8.8958522 5.940678,8.4629743 5.4809122,8.1087278 5.4596542,8.1086379 5.4233246,8.108482 3.4804534,10.465852 2.3187375,11.919644 2.0292701,12.281889 1.8119532,12.609855 1.835811,12.648458 c 0.051904,0.08398 12.442155,0.100619 12.442155,0.0167 z M 2.9121218,9.2198834 C 3.5141837,8.4701412 4.1061788,7.7173527 4.2276668,7.5470199 L 4.4485539,7.237324 2.9228184,6.0118823 C 2.0836639,5.3378894 1.3817224,4.7864407 1.3629483,4.7864407 c -0.018774,0 -0.032865,1.4262712 -0.031313,3.1694915 l 0.00282,3.1694918 0.2415031,-0.271187 C 1.7087879,10.705085 2.3100603,9.9696258 2.9121221,9.2198834 Z M 14.684746,7.9010836 c 0,-2.4801604 -0.01744,-3.1121357 -0.08475,-3.0715665 -0.136445,0.08224 -2.429518,1.8947083 -2.753231,2.1761825 l -0.295603,0.2570328 0.871875,1.0880654 c 1.482901,1.8506032 2.157915,2.6655992 2.210857,2.6693392 0.02797,0.002 0.05085,-1.4015987 0.05085,-3.1190534 z M 9.6892854,7.1796412 C 12.22716,5.1324978 14.098953,3.5929503 14.237626,3.4386346 L 14.366778,3.2949153 H 8.0172875 c -3.4922201,0 -6.3494909,0.019518 -6.3494909,0.043373 0,0.023855 0.04303,0.077245 0.095622,0.1186441 0.052592,0.041399 0.8229313,0.6717684 1.7118644,1.4008211 1.7428224,1.4293646 3.9314285,3.1945303 4.2603098,3.4360472 0.1118644,0.082149 0.2435682,0.1503275 0.2926753,0.1515088 0.049107,0.00118 0.7965647,-0.5683696 1.6610173,-1.2656683 z"
     id="path816"
     inkscape:connector-curvature="0"
     transform="scale(1.5)" />
</svg>
