<?xml version="1.0" encoding="UTF-8" standalone="no"?>
<svg
   xmlns:dc="http://purl.org/dc/elements/1.1/"
   xmlns:cc="http://creativecommons.org/ns#"
   xmlns:rdf="http://www.w3.org/1999/02/22-rdf-syntax-ns#"
   xmlns:svg="http://www.w3.org/2000/svg"
   xmlns="http://www.w3.org/2000/svg"
   xmlns:sodipodi="http://sodipodi.sourceforge.net/DTD/sodipodi-0.dtd"
   xmlns:inkscape="http://www.inkscape.org/namespaces/inkscape"
   width="16"
   height="16"
   fill="rgb(69,72,82)"
   viewBox="0 0 24 24"
   version="1.1"
   id="svg70"
   sodipodi:docname="name.svg"
   inkscape:version="0.92.2 5c3e80d, 2017-08-06">
  <metadata
     id="metadata76">
    <rdf:RDF>
      <cc:Work
         rdf:about="">
        <dc:format>image/svg+xml</dc:format>
        <dc:type
           rdf:resource="http://purl.org/dc/dcmitype/StillImage" />
      </cc:Work>
    </rdf:RDF>
  </metadata>
  <defs
     id="defs74" />
  <sodipodi:namedview
     pagecolor="#ffffff"
     bordercolor="#666666"
     borderopacity="1"
     objecttolerance="10"
     gridtolerance="10"
     guidetolerance="10"
     inkscape:pageopacity="0"
     inkscape:pageshadow="2"
     inkscape:window-width="1142"
     inkscape:window-height="787"
     id="namedview72"
     showgrid="false"
     inkscape:zoom="36.875"
     inkscape:cx="3.7152542"
     inkscape:cy="8"
     inkscape:window-x="104"
     inkscape:window-y="0"
     inkscape:window-maximized="0"
     inkscape:current-layer="svg70" />
  <path
     d="M20.822 18.096c-3.439-.794-6.64-1.49-5.09-4.418 4.72-8.912 1.251-13.678-3.732-13.678-5.082 0-8.464 4.949-3.732 13.678 1.597 2.945-1.725 3.641-5.09 4.418-3.073.71-3.188 2.236-3.178 4.904l.004 1h23.99l.004-.969c.012-2.688-.092-4.222-3.176-4.935z"
     id="path68" />
  <path
     style="fill:#5f01ab;stroke-width:0.02711864;fill-opacity:0"
     d="m 0.02441826,15.065763 c 0.01744439,-1.130125 0.05453758,-1.382219 0.26857388,-1.825289 0.22810462,-0.472191 0.68478457,-0.815918 1.37751636,-1.036805 0.1416949,-0.04518 0.5505084,-0.150516 0.9084746,-0.234077 2.0395286,-0.476092 2.8125421,-0.843273 3.1160032,-1.4801 0.078642,-0.165035 0.083889,-0.195288 0.082305,-0.474577 C 5.7752225,9.6499881 5.7303279,9.5152122 5.3978864,8.8759322 4.5664534,7.2770983 4.1203433,5.8584382 4.0311192,4.5295214 3.8751211,2.2060662 5.015286,0.54164738 7.0650297,0.10060238 7.4015306,0.02819718 8.1963734,3.2903919e-4 8.5772881,0.04758079 11.058681,0.35539317 12.352596,2.4142036 11.865619,5.2798028 c -0.18772,1.1046297 -0.520915,2.0616673 -1.218955,3.5012141 -0.394489,0.813542 -0.450132,0.9863976 -0.426854,1.3260171 0.05552,0.809992 0.845499,1.300406 2.867648,1.780215 1.218752,0.289181 1.404547,0.345624 1.78983,0.543736 0.610285,0.313808 0.915821,0.760809 1.045579,1.529693 0.0307,0.181931 0.04792,0.518579 0.0586,1.145763 l 0.01512,0.888135 H 8.0033342 0.01008127 Z"
     id="path3767"
     inkscape:connector-curvature="0"
     transform="scale(1.5)" />
  <path
     style="fill:#5f01ab;fill-opacity:0;stroke-width:0.02711864"
     d="M 0.012616,15.733625 C -0.00950925,15.438516 0.0154177,14.542629 0.05690085,14.142003 0.15360499,13.208078 0.54139721,12.660072 1.344386,12.322603 1.6158781,12.208504 1.8454933,12.144463 2.9559322,11.873137 4.7086053,11.444885 5.387667,11.102637 5.6872008,10.496572 5.7811658,10.306446 5.7880811,10.275604 5.788397,10.045234 5.7888553,9.7102609 5.7206191,9.5013991 5.4240957,8.9301695 4.2100816,6.5914652 3.7808081,4.6026701 4.1397125,2.9797087 4.3092664,2.212988 4.6264534,1.6246179 5.1496816,1.1062531 5.6850517,0.57585915 6.2572515,0.27688662 7.0779661,0.09873068 7.3290514,0.04422659 7.4380475,0.03691974 8,0.03691974 c 0.5619525,0 0.6709486,0.0073069 0.9220339,0.06181094 0.8194077,0.17787222 1.4199151,0.49281294 1.9403301,1.01762122 0.740051,0.7462973 1.096958,1.7222862 1.096958,2.9997129 0,1.3858408 -0.424292,2.8847512 -1.327336,4.6891178 -0.299402,0.5982346 -0.372211,0.7878056 -0.406036,1.0571884 -0.04552,0.362512 0.05257,0.667376 0.302814,0.941186 0.383958,0.420112 1.121868,0.73369 2.520957,1.071294 0.37723,0.09103 0.838415,0.20606 1.024855,0.255631 1.134103,0.301531 1.650542,0.789774 1.831173,1.731195 0.05414,0.282155 0.09409,1.214823 0.07423,1.732899 l -0.01533,0.4 H 7.9984136 0.03218031 Z"
     id="path4574"
     inkscape:connector-curvature="0"
     transform="scale(1.5)" />
  <path
     style="fill:#5f01ab;fill-opacity:0.00392157;stroke-width:0.02711864"
     d="M 0.012616,15.733625 C -0.00950925,15.438516 0.0154177,14.542629 0.05690085,14.142003 0.15360499,13.208078 0.54139721,12.660072 1.344386,12.322603 1.6158781,12.208504 1.8454933,12.144463 2.9559322,11.873137 4.7086053,11.444885 5.387667,11.102637 5.6872008,10.496572 5.7811658,10.306446 5.7880811,10.275604 5.788397,10.045234 5.7888553,9.7102609 5.7206191,9.5013991 5.4240957,8.9301695 4.2100816,6.5914652 3.7808081,4.6026701 4.1397125,2.9797087 4.3092664,2.212988 4.6264534,1.6246179 5.1496816,1.1062531 5.6850517,0.57585915 6.2572515,0.27688662 7.0779661,0.09873068 7.3290514,0.04422659 7.4380475,0.03691974 8,0.03691974 c 0.5619525,0 0.6709486,0.0073069 0.9220339,0.06181094 0.8194077,0.17787222 1.4199151,0.49281294 1.9403301,1.01762122 0.740051,0.7462973 1.096958,1.7222862 1.096958,2.9997129 0,1.3858408 -0.424292,2.8847512 -1.327336,4.6891178 -0.299402,0.5982346 -0.372211,0.7878056 -0.406036,1.0571884 -0.04552,0.362512 0.05257,0.667376 0.302814,0.941186 0.383958,0.420112 1.121868,0.73369 2.520957,1.071294 0.37723,0.09103 0.838415,0.20606 1.024855,0.255631 1.134103,0.301531 1.650542,0.789774 1.831173,1.731195 0.05414,0.282155 0.09409,1.214823 0.07423,1.732899 l -0.01533,0.4 H 7.9984136 0.03218031 Z"
     id="path4576"
     inkscape:connector-curvature="0"
     transform="scale(1.5)" />
  <path
     style="fill:#5f01ab;fill-opacity:0.99047619;stroke-width:0.02711864"
     d="M 0.012616,15.733625 C -0.00950925,15.438516 0.0154177,14.542629 0.05690085,14.142003 0.15360499,13.208078 0.54139721,12.660072 1.344386,12.322603 1.6158781,12.208504 1.8454933,12.144463 2.9559322,11.873137 4.7086053,11.444885 5.387667,11.102637 5.6872008,10.496572 5.7811658,10.306446 5.7880811,10.275604 5.788397,10.045234 5.7888553,9.7102609 5.7206191,9.5013991 5.4240957,8.9301695 4.2100816,6.5914652 3.7808081,4.6026701 4.1397125,2.9797087 4.3092664,2.212988 4.6264534,1.6246179 5.1496816,1.1062531 5.6850517,0.57585915 6.2572515,0.27688662 7.0779661,0.09873068 7.3290514,0.04422659 7.4380475,0.03691974 8,0.03691974 c 0.5619525,0 0.6709486,0.0073069 0.9220339,0.06181094 0.8194077,0.17787222 1.4199151,0.49281294 1.9403301,1.01762122 0.740051,0.7462973 1.096958,1.7222862 1.096958,2.9997129 0,1.3858408 -0.424292,2.8847512 -1.327336,4.6891178 -0.299402,0.5982346 -0.372211,0.7878056 -0.406036,1.0571884 -0.04552,0.362512 0.05257,0.667376 0.302814,0.941186 0.383958,0.420112 1.121868,0.73369 2.520957,1.071294 0.37723,0.09103 0.838415,0.20606 1.024855,0.255631 1.134103,0.301531 1.650542,0.789774 1.831173,1.731195 0.05414,0.282155 0.09409,1.214823 0.07423,1.732899 l -0.01533,0.4 H 7.9984136 0.03218031 Z"
     id="path4578"
     inkscape:connector-curvature="0"
     transform="scale(1.5)" />
  <path
     style="fill:#5f01ab;fill-opacity:0.99047618;stroke-width:0.02711864"
     d="M 0.02128768,15.71661 C 0.00772146,15.228673 0.0479843,14.227154 0.09201668,13.95726 0.13991845,13.663648 0.24985649,13.32947 0.36086129,13.140055 0.46416393,12.963782 0.71411523,12.700375 0.89348331,12.57876 1.252967,12.335023 1.4771294,12.255672 2.6305085,11.963876 3.9877868,11.620494 4.4049283,11.488372 4.8697481,11.254637 5.2851113,11.045771 5.5273204,10.818008 5.7122652,10.462373 5.7840163,10.324401 5.789613,10.291876 5.7869294,10.028475 5.7833283,9.6750435 5.7468423,9.5620282 5.4357136,8.9405836 4.4489757,6.9696871 4.0395561,5.5690259 4.0375344,4.1572881 4.0360483,3.1205437 4.2535873,2.3174564 4.7222441,1.6295313 4.9094235,1.3547774 5.4066197,0.86037746 5.6793372,0.67782102 6.0482384,0.43087951 6.4938411,0.24343698 6.9930964,0.12518873 7.3337782,0.04449856 8.3968521,0.02319173 8.794173,0.08909036 c 0.5328526,0.08837755 1.0967073,0.30516477 1.518465,0.5838096 0.274083,0.1810797 0.656844,0.54686174 0.871411,0.83275594 0.918745,1.2241574 1.012752,3.1584469 0.260398,5.3579536 -0.203289,0.5943165 -0.387713,1.0330728 -0.766055,1.8224922 -0.358756,0.7485554 -0.420143,0.905571 -0.456646,1.1680214 -0.0548,0.3939749 0.0539,0.6945449 0.361123,0.9986039 0.437769,0.433257 0.982906,0.652451 2.704256,1.087357 1.029283,0.260052 1.294169,0.34405 1.612095,0.511214 0.25843,0.135881 0.587073,0.435021 0.719039,0.654489 0.128441,0.213607 0.242018,0.548982 0.289475,0.854779 0.04479,0.288618 0.08479,1.700032 0.054,1.905373 l -0.01929,0.128637 H 7.9857277 0.02901603 Z"
     id="path4580"
     inkscape:connector-curvature="0"
     transform="scale(1.5)" />
  <path
     style="fill:#9c27b0;fill-opacity:1;stroke-width:0.02711864"
     d="M 0.02174451,15.784407 C 0.00141187,14.989242 0.05344866,14.069195 0.13869664,13.71661 0.23206088,13.330457 0.37910991,13.060184 0.63427363,12.805751 1.0292683,12.411888 1.2825538,12.306342 2.7120252,11.939935 4.5089529,11.479342 5.0485779,11.259441 5.4522793,10.823266 5.5335257,10.735484 5.6410931,10.58652 5.6913179,10.492234 5.7780257,10.32946 5.7825998,10.306852 5.781924,10.044409 5.7810101,9.6897746 5.7248767,9.5180982 5.3933052,8.8558891 4.4421345,6.9562262 4.0348919,5.5417714 4.0366044,4.1437288 4.0382671,2.7862137 4.4044976,1.8343388 5.227728,1.0478616 5.6991739,0.59746343 6.162227,0.34678077 6.8867574,0.14971398 L 7.2,0.06451434 8,0.06403471 8.8,0.06355509 9.121684,0.15141087 c 0.7766682,0.2121174 1.309456,0.5236684 1.813141,1.06024573 0.367331,0.3913182 0.602508,0.7915745 0.780564,1.3284687 0.165058,0.4977025 0.225569,0.9171414 0.225479,1.5629255 -1.36e-4,0.9358455 -0.138211,1.7081655 -0.492117,2.7525424 -0.214008,0.6315363 -0.321502,0.8873749 -0.791904,1.8847458 -0.175866,0.3728813 -0.341027,0.738983 -0.367025,0.8135593 -0.06971,0.1999767 -0.08386,0.6239947 -0.02687,0.8050027 0.136802,0.434446 0.596994,0.808301 1.347523,1.094713 0.327263,0.124889 0.786114,0.256376 1.832606,0.525147 1.258753,0.323287 1.537914,0.443363 1.922643,0.82699 0.372673,0.371605 0.525098,0.775738 0.578795,1.534588 0.03018,0.426586 0.03774,1.494449 0.01127,1.59322 l -0.01635,0.06102 H 7.9832778 0.02711862 Z"
     id="path817"
     inkscape:connector-curvature="0"
     transform="scale(1.5)" />
</svg>
